<?xml version="1.0" ?>
<svg height="565" version="1.1" width="408" xmlns="http://www.w3.org/2000/svg">
  <defs/>
  <g>
    <path d="M 356.83221435546875 299.4165954589844 C 361.26470947265625 349.23193359375 310.3264465332031 336.5347595214844 411.9083251953125 438.1609191894531 C 418.0025634765625 549.861083984375 401.6569519042969 563.6174926757812 37.0596809387207 554.9762573242188 C 77.53340148925781 -16.450294494628906 156.8133544921875 18.577543258666992 345.4053039550781 163.974365234375 C 331.7868957519531 283.0322265625 350.7200012207031 271.9461669921875 356.83221435546875 299.4165954589844" fill="white" fill2="rgb(163, 123, 69)" opacity="0.067465834" stroke="black" stroke2="rgb(6, 221, 218)" stroke-linecap="round" stroke-linejoin="round" stroke-opacity="1.0" stroke-opacity2="0.08064123" stroke-width="2.0"/>
    <path d="M 363.1868896484375 522.6068725585938 C 251.7340850830078 530.7232055664062 213.0929718017578 528.9361572265625 39.83148956298828 528.766845703125 C 46.44074249267578 541.8764038085938 28.669946670532227 521.6194458007812 50.41022872924805 469.0036926269531 C 85.59173583984375 399.1407775878906 129.20962524414062 390.8948059082031 222.67520141601562 395.9891357421875 C 335.6442565917969 408.4690246582031 364.3006286621094 467.6332092285156 363.1868896484375 522.6068725585938" fill="white" fill2="rgb(107, 139, 144)" opacity="0.75640756" stroke="black" stroke2="rgb(106, 136, 251)" stroke-linecap="round" stroke-linejoin="round" stroke-opacity="1.0" stroke-opacity2="0.44844747" stroke-width="2.0"/>
    <path d="M 286.9333801269531 375.350341796875 C 310.9597473144531 362.2782287597656 196.56430053710938 438.6130065917969 104.67887878417969 358.6315002441406 C 69.3900146484375 325.49530029296875 64.60739135742188 284.1348876953125 73.61262512207031 285.7210998535156 C 224.18472290039062 286.1308898925781 276.25885009765625 272.29595947265625 347.85150146484375 273.2220153808594 C 347.77789306640625 251.930908203125 355.2830810546875 328.6015319824219 286.9333801269531 375.350341796875" fill="white" fill2="rgb(174, 113, 71)" opacity="0.7825896" stroke="black" stroke2="rgb(51, 88, 165)" stroke-linecap="round" stroke-linejoin="round" stroke-opacity="1.0" stroke-opacity2="0.7118258" stroke-width="2.0"/>
    <path d="M 208.36949157714844 98.89403533935547 C 206.05868530273438 111.90687561035156 193.67457580566406 120.60282135009766 183.0447998046875 119.71788787841797 C 174.48486328125 120.2979965209961 165.0460968017578 111.80188751220703 162.81263732910156 101.3626480102539 C 159.6468048095703 83.18013763427734 171.5867462158203 73.8337173461914 188.02847290039062 74.32756805419922 C 199.77566528320312 74.0129623413086 210.2979278564453 84.03443145751953 208.36949157714844 98.89403533935547" fill="white" fill2="rgb(192, 156, 57)" opacity="0.85527706" stroke="black" stroke2="rgb(40, 158, 89)" stroke-linecap="round" stroke-linejoin="round" stroke-opacity="1.0" stroke-opacity2="0.5536955" stroke-width="2.0"/>
    <path d="M 213.29856872558594 187.91110229492188 C 202.701904296875 197.624755859375 196.422607421875 207.1312713623047 158.6822967529297 199.57630920410156 C 133.58987426757812 193.05252075195312 119.4364242553711 170.1617431640625 112.65166473388672 137.35675048828125 C 124.22051239013672 138.03268432617188 137.5969696044922 137.49021911621094 202.33885192871094 137.7689971923828 C 210.56031799316406 147.20970153808594 215.2762451171875 119.06022644042969 213.29856872558594 187.91110229492188" fill="white" fill2="rgb(168, 138, 133)" opacity="0.7773028" stroke="black" stroke2="rgb(61, 42, 211)" stroke-linecap="round" stroke-linejoin="round" stroke-opacity="1.0" stroke-opacity2="0.34979507" stroke-width="2.0"/>
    <path d="M 279.4841003417969 234.09767150878906 C 259.8878479003906 288.56884765625 177.74752807617188 282.7876892089844 177.8599853515625 281.98468017578125 C 104.17200469970703 269.9540100097656 104.78966522216797 247.23355102539062 99.42645263671875 216.03684997558594 C 101.95763397216797 194.94581604003906 84.07251739501953 201.81056213378906 177.1386260986328 200.49978637695312 C 298.79345703125 211.88510131835938 283.91552734375 202.05384826660156 279.4841003417969 234.09767150878906" fill="white" fill2="rgb(151, 108, 105)" opacity="0.43166506" stroke="black" stroke2="rgb(215, 57, 175)" stroke-linecap="round" stroke-linejoin="round" stroke-opacity="1.0" stroke-opacity2="0.3003981" stroke-width="2.0"/>
    <path d="M 261.2696228027344 141.7313995361328 C 260.21429443359375 156.8803253173828 257.1972961425781 187.9542694091797 220.79425048828125 198.5635986328125 C 197.138916015625 205.04989624023438 186.73056030273438 199.3951873779297 188.41592407226562 204.10842895507812 C 187.7864990234375 129.6096649169922 190.61976623535156 137.67005920410156 222.84524536132812 138.3072509765625 C 263.5408935546875 140.27206420898438 260.7974853515625 141.21241760253906 261.2696228027344 141.7313995361328" fill="white" fill2="rgb(175, 140, 134)" opacity="0.7754504" stroke="black" stroke2="rgb(57, 58, 62)" stroke-linecap="round" stroke-linejoin="round" stroke-opacity="1.0" stroke-opacity2="0.545953" stroke-width="2.0"/>
    <path d="M 362.3367919921875 521.5161743164062 C 321.15057373046875 525.4684448242188 274.708984375 527.5722045898438 204.69317626953125 527.879150390625 C 185.6979522705078 503.2580261230469 176.75816345214844 440.9469909667969 61.77139663696289 449.69818115234375 C 98.0761947631836 401.4057312011719 123.19405364990234 397.076416015625 189.9166717529297 395.30279541015625 C 291.8633728027344 396.693603515625 362.8708801269531 434.84716796875 362.3367919921875 521.5161743164062" fill="white" fill2="rgb(0, 51, 53)" opacity="0.64224356" stroke="black" stroke2="rgb(42, 70, 108)" stroke-linecap="round" stroke-linejoin="round" stroke-opacity="1.0" stroke-opacity2="0.09606735" stroke-width="2.0"/>
    <path d="M 107.34732055664062 31.54779815673828 C 95.09174346923828 -20.124677658081055 124.4535140991211 -20.70880126953125 255.37423706054688 1.3330219984054565 C 275.0898742675781 133.28909301757812 214.0375213623047 45.416927337646484 120.70989227294922 99.59912109375 C 111.35977172851562 55.600589752197266 111.90802001953125 30.563631057739258 126.57556915283203 42.5575065612793 C 136.6290283203125 48.012962341308594 135.02769470214844 46.8510856628418 107.34732055664062 31.54779815673828" fill="white" fill2="rgb(239, 202, 147)" opacity="0.08107058" stroke="black" stroke2="rgb(114, 43, 159)" stroke-linecap="round" stroke-linejoin="round" stroke-opacity="1.0" stroke-opacity2="0.9386351" stroke-width="2.0"/>
    <path d="M 150.36917114257812 303.76312255859375 C 152.53399658203125 325.8838806152344 116.90473937988281 291.5770568847656 121.49381256103516 369.9205017089844 C 100.38845825195312 355.6108703613281 73.4504165649414 324.0058898925781 66.37786865234375 288.09918212890625 C 63.98271179199219 281.8251647949219 130.275390625 285.6383361816406 153.26271057128906 284.4073791503906 C 151.2490692138672 294.08843994140625 142.27499389648438 275.1754150390625 150.36917114257812 303.76312255859375" fill="white" fill2="rgb(189, 138, 104)" opacity="0.831842" stroke="black" stroke2="rgb(85, 55, 192)" stroke-linecap="round" stroke-linejoin="round" stroke-opacity="1.0" stroke-opacity2="0.41620162" stroke-width="2.0"/>
    <path d="M 204.67787170410156 527.8238525390625 C 209.6848907470703 527.1746215820312 208.9872283935547 529.0211181640625 144.495361328125 526.6488647460938 C 242.76223754882812 529.7279663085938 135.68075561523438 525.975830078125 38.46635818481445 529.6771240234375 C 44.37630081176758 419.29571533203125 115.19080352783203 410.766357421875 132.48497009277344 448.66424560546875 C 195.32254028320312 489.6557922363281 186.40492248535156 503.26708984375 204.67787170410156 527.8238525390625" fill="white" fill2="rgb(23, 66, 67)" opacity="0.8081307" stroke="black" stroke2="rgb(114, 206, 27)" stroke-linecap="round" stroke-linejoin="round" stroke-opacity="1.0" stroke-opacity2="0.6463464" stroke-width="2.0"/>
    <path d="M 405.142333984375 63.88359832763672 C 399.2185363769531 106.33780670166016 426.7080993652344 125.75059509277344 364.14862060546875 129.6557159423828 C 318.4046325683594 171.26174926757812 366.70166015625 164.95181274414062 233.8022003173828 87.2427978515625 C 225.587158203125 -38.95785140991211 318.0774841308594 -52.68354797363281 418.601806640625 9.65500259399414 C 396.95977783203125 58.403934478759766 406.51312255859375 49.278419494628906 405.142333984375 63.88359832763672" fill="white" fill2="rgb(225, 168, 98)" opacity="0.0653221" stroke="black" stroke2="rgb(15, 78, 103)" stroke-linecap="round" stroke-linejoin="round" stroke-opacity="1.0" stroke-opacity2="0.7715899" stroke-width="2.0"/>
    <path d="M 431.23858642578125 139.17462158203125 C 442.8064270019531 295.152587890625 501.6458740234375 375.6499328613281 358.3775329589844 490.59033203125 C 330.2192687988281 217.6691436767578 345.4399719238281 143.9246826171875 347.3631896972656 183.7159423828125 C 376.6916198730469 236.36973571777344 376.7441101074219 236.8361358642578 361.19476318359375 208.3188934326172 C 313.1016540527344 137.5323486328125 372.123046875 86.61228942871094 431.23858642578125 139.17462158203125" fill="white" fill2="rgb(220, 200, 173)" opacity="0.11584839" stroke="black" stroke2="rgb(64, 143, 91)" stroke-linecap="round" stroke-linejoin="round" stroke-opacity="1.0" stroke-opacity2="0.73241657" stroke-width="2.0"/>
    <path d="M 106.25347900390625 191.54873657226562 C 69.48744201660156 299.6807556152344 -79.26213073730469 203.00213623046875 -24.14628791809082 58.55244445800781 C 0.5972453951835632 30.350976943969727 -0.7277644276618958 27.39240264892578 -2.051297187805176 23.926294326782227 C -2.098538637161255 7.612922191619873 -5.779918670654297 1.1237916946411133 9.40954875946045 -4.091589450836182 C 98.39581298828125 -26.899513244628906 153.91249084472656 -57.622528076171875 106.25347900390625 191.54873657226562" fill="white" fill2="rgb(255, 255, 254)" opacity="0.20993277" stroke="black" stroke2="rgb(161, 221, 89)" stroke-linecap="round" stroke-linejoin="round" stroke-opacity="1.0" stroke-opacity2="0.6732797" stroke-width="2.0"/>
    <path d="M 248.83407592773438 278.1664733886719 C 198.3150177001953 280.13153076171875 162.36280822753906 287.0655517578125 240.8372344970703 279.58087158203125 C 388.20166015625 270.1261901855469 358.64483642578125 269.2841491699219 253.43832397460938 277.3309020996094 C 254.50218200683594 275.1827697753906 256.4866943359375 278.1817626953125 246.32249450683594 277.7464599609375 C 248.74362182617188 278.7563171386719 249.47988891601562 277.3187561035156 248.83407592773438 278.1664733886719" fill="white" fill2="rgb(208, 172, 148)" opacity="0.4941063" stroke="black" stroke2="rgb(121, 193, 231)" stroke-linecap="round" stroke-linejoin="round" stroke-opacity="1.0" stroke-opacity2="0.8540281" stroke-width="2.0"/>
    <path d="M 211.57093811035156 170.8881072998047 C 214.13796997070312 185.62034606933594 201.9987335205078 183.29100036621094 178.36367797851562 171.87176513671875 C 209.9160919189453 182.06564331054688 212.8505859375 210.08566284179688 159.28091430664062 198.92845153808594 C 124.19246673583984 189.39024353027344 163.7905731201172 168.77340698242188 199.9524383544922 150.81353759765625 C 210.1070098876953 181.65643310546875 212.56817626953125 186.0399932861328 211.57093811035156 170.8881072998047" fill="white" fill2="rgb(147, 91, 82)" opacity="0.8770823" stroke="black" stroke2="rgb(191, 138, 18)" stroke-linecap="round" stroke-linejoin="round" stroke-opacity="1.0" stroke-opacity2="0.36138472" stroke-width="2.0"/>
    <path d="M 430.16351318359375 378.50885009765625 C 411.9180603027344 395.9656677246094 426.7068786621094 406.3197021484375 412.7844543457031 438.6827392578125 C 388.6043395996094 413.5530700683594 358.96343994140625 384.8873291015625 348.9256591796875 356.44927978515625 C 348.311279296875 319.3353576660156 327.4273681640625 240.5594482421875 402.9593811035156 201.0435028076172 C 404.18865966796875 376.0300598144531 398.8439025878906 352.7797546386719 430.16351318359375 378.50885009765625" fill="white" fill2="rgb(245, 240, 235)" opacity="0.57771915" stroke="black" stroke2="rgb(112, 203, 17)" stroke-linecap="round" stroke-linejoin="round" stroke-opacity="1.0" stroke-opacity2="0.66254985" stroke-width="2.0"/>
    <path d="M 61.69241714477539 311.4598083496094 C 51.14852523803711 386.9955139160156 51.4185791015625 396.62237548828125 51.9807014465332 388.1846008300781 C 51.55854415893555 387.79351806640625 51.924072265625 391.7775573730469 48.3748779296875 417.7445068359375 C 53.543582916259766 438.3270263671875 24.63813018798828 440.7758483886719 -23.76241111755371 413.35101318359375 C -29.190185546875 296.10400390625 14.140488624572754 305.0209655761719 61.69241714477539 311.4598083496094" fill="white" fill2="rgb(233, 189, 133)" opacity="0.088977486" stroke="black" stroke2="rgb(15, 161, 38)" stroke-linecap="round" stroke-linejoin="round" stroke-opacity="1.0" stroke-opacity2="0.35402837" stroke-width="2.0"/>
    <path d="M 260.1353454589844 141.78353881835938 C 258.2794494628906 221.34359741210938 164.7805633544922 199.60084533691406 150.82582092285156 195.85874938964844 C 128.5503387451172 186.5862274169922 117.5701904296875 158.76535034179688 113.9962387084961 138.4755096435547 C 111.69020080566406 138.34375 130.18936157226562 138.846923828125 161.86495971679688 138.1986083984375 C 103.46231079101562 139.7422637939453 218.4302520751953 136.1520233154297 260.1353454589844 141.78353881835938" fill="white" fill2="rgb(142, 90, 78)" opacity="1.0" stroke="black" stroke2="rgb(176, 62, 153)" stroke-linecap="round" stroke-linejoin="round" stroke-opacity="1.0" stroke-opacity2="0.19419256" stroke-width="2.0"/>
    <path d="M 60.951786041259766 310.8206481933594 C 10.80488395690918 307.958251953125 12.591988563537598 307.95257568359375 0.8261601328849792 315.2559509277344 C -24.289628982543945 304.11236572265625 -12.169330596923828 290.5625915527344 -19.495929718017578 262.22369384765625 C -6.460329055786133 266.2095031738281 -14.992716789245605 261.035400390625 -6.576150894165039 215.2771759033203 C 84.31173706054688 190.2989044189453 86.6338119506836 179.68988037109375 60.951786041259766 310.8206481933594" fill="white" fill2="rgb(231, 183, 123)" opacity="0.08226573" stroke="black" stroke2="rgb(124, 68, 25)" stroke-linecap="round" stroke-linejoin="round" stroke-opacity="1.0" stroke-opacity2="0.753977" stroke-width="2.0"/>
    <path d="M 12.425481796264648 557.8681030273438 C 169.17611694335938 551.1233520507812 184.31947326660156 521.2656860351562 174.29978942871094 517.4244995117188 C 176.8240966796875 522.947998046875 126.80792236328125 507.6424255371094 122.8414306640625 549.3638305664062 C 178.27874755859375 530.7169799804688 148.65219116210938 521.7673950195312 410.41802978515625 477.2966613769531 C 454.208740234375 589.9675903320312 359.2674560546875 628.9627685546875 12.425481796264648 557.8681030273438" fill="white" fill2="rgb(93, 99, 80)" opacity="0.056749508" stroke="black" stroke2="rgb(61, 21, 43)" stroke-linecap="round" stroke-linejoin="round" stroke-opacity="1.0" stroke-opacity2="0.09350314" stroke-width="2.0"/>
    <path d="M 180.44891357421875 428.42962646484375 C 214.72084045410156 431.0697021484375 188.8069610595703 426.9818420410156 212.7314910888672 527.2498779296875 C 94.24372100830078 520.5023803710938 56.20893859863281 516.1056518554688 65.72334289550781 443.90216064453125 C 125.21330261230469 368.2503662109375 183.45506286621094 405.3591613769531 164.4449005126953 425.3058776855469 C 188.04672241210938 437.5931701660156 193.88262939453125 423.4267578125 180.44891357421875 428.42962646484375" fill="white" fill2="rgb(48, 89, 87)" opacity="0.45626715" stroke="black" stroke2="rgb(61, 207, 209)" stroke-linecap="round" stroke-linejoin="round" stroke-opacity="1.0" stroke-opacity2="0.41585377" stroke-width="2.0"/>
    <path d="M 234.64813232421875 42.16334533691406 C 231.10023498535156 88.48907470703125 222.22280883789062 78.66433715820312 209.14784240722656 76.62503051757812 C 172.90269470214844 69.1563491821289 160.56610107421875 75.45227813720703 164.8376922607422 72.21513366699219 C 149.37191772460938 58.5208854675293 151.3114776611328 54.63957214355469 150.60516357421875 23.955331802368164 C 179.88967895507812 -14.164313316345215 226.791259765625 -7.31223726272583 234.64813232421875 42.16334533691406" fill="white" fill2="rgb(251, 245, 239)" opacity="0.33401498" stroke="black" stroke2="rgb(210, 217, 246)" stroke-linecap="round" stroke-linejoin="round" stroke-opacity="1.0" stroke-opacity2="0.40487516" stroke-width="2.0"/>
    <path d="M 297.2106628417969 16.98993682861328 C 292.0816345214844 13.689458847045898 297.669189453125 15.739339828491211 292.0908203125 9.92994499206543 C 297.693359375 20.69795799255371 299.8985595703125 28.334327697753906 295.8185119628906 25.323894500732422 C 290.5928955078125 10.7868013381958 293.70806884765625 16.325172424316406 296.890869140625 10.864755630493164 C 300.3670959472656 13.582375526428223 292.8515625 11.113378524780273 297.2106628417969 16.98993682861328" fill="white" fill2="rgb(253, 244, 234)" opacity="0.049718194" stroke="black" stroke2="rgb(232, 5, 102)" stroke-linecap="round" stroke-linejoin="round" stroke-opacity="1.0" stroke-opacity2="0.9434637" stroke-width="2.0"/>
    <path d="M 108.76947784423828 174.78050231933594 C 113.68301391601562 41.433353424072266 63.83445739746094 66.371337890625 86.13668823242188 223.68544006347656 C -10.173614501953125 247.4581756591797 -25.528274536132812 196.6964111328125 -21.596553802490234 89.29432678222656 C 10.905779838562012 61.80997085571289 11.692924499511719 73.84261322021484 81.27528381347656 81.46878814697266 C 79.2564697265625 157.13449096679688 77.79483032226562 274.9401550292969 108.76947784423828 174.78050231933594" fill="white" fill2="rgb(253, 248, 243)" opacity="0.9818576" stroke="black" stroke2="rgb(106, 170, 203)" stroke-linecap="round" stroke-linejoin="round" stroke-opacity="1.0" stroke-opacity2="0.9321228" stroke-width="2.0"/>
    <path d="M 150.05247497558594 539.4796142578125 C 143.77322387695312 538.1786499023438 146.90513610839844 536.69482421875 141.13235473632812 534.0553588867188 C 122.34791564941406 534.70849609375 122.29539489746094 526.7579956054688 142.46340942382812 536.0582885742188 C 148.57569885253906 532.636474609375 150.3295440673828 533.6858520507812 154.011962890625 533.8125 C 141.48492431640625 532.3887939453125 143.20323181152344 538.27392578125 150.05247497558594 539.4796142578125" fill="white" fill2="rgb(255, 255, 255)" opacity="0.1444263" stroke="black" stroke2="rgb(51, 41, 181)" stroke-linecap="round" stroke-linejoin="round" stroke-opacity="1.0" stroke-opacity2="0.4831842" stroke-width="2.0"/>
    <path d="M 289.3470458984375 413.2751770019531 C 353.25048828125 438.9785461425781 375.622802734375 502.7209167480469 329.0301208496094 493.5523986816406 C 253.08985900878906 439.97296142578125 277.42913818359375 457.33001708984375 271.80426025390625 438.37518310546875 C 261.09710693359375 429.3890380859375 268.61077880859375 434.03448486328125 273.94842529296875 449.2597351074219 C 270.2894592285156 422.5692443847656 281.2464904785156 459.3617858886719 289.3470458984375 413.2751770019531" fill="white" fill2="rgb(69, 104, 101)" opacity="0.28862268" stroke="black" stroke2="rgb(110, 91, 88)" stroke-linecap="round" stroke-linejoin="round" stroke-opacity="1.0" stroke-opacity2="0.20725754" stroke-width="2.0"/>
    <path d="M 114.7965087890625 136.73873901367188 C 28.16604232788086 143.2969970703125 52.42715072631836 105.11402893066406 9.73532485961914 84.58495330810547 C 9.640115737915039 76.97193145751953 -10.955170631408691 88.9140853881836 -12.759992599487305 23.143430709838867 C 13.185264587402344 12.250036239624023 -29.32084083557129 20.315523147583008 9.498345375061035 -20.706167221069336 C 118.97525024414062 -49.11066818237305 136.77615356445312 -3.03832745552063 114.7965087890625 136.73873901367188" fill="white" fill2="rgb(252, 248, 243)" opacity="0.9763576" stroke="black" stroke2="rgb(16, 144, 203)" stroke-linecap="round" stroke-linejoin="round" stroke-opacity="1.0" stroke-opacity2="0.51463664" stroke-width="2.0"/>
    <path d="M 43.80458450317383 486.55303955078125 C 35.10326385498047 521.8795776367188 39.62680435180664 527.3057250976562 47.097408294677734 432.36932373046875 C 15.856718063354492 406.421630859375 -30.90253257751465 407.687744140625 -16.069232940673828 559.1058959960938 C 81.16557312011719 605.43212890625 36.810020446777344 561.2699584960938 39.350852966308594 505.99530029296875 C 44.106143951416016 479.8154296875 39.85659408569336 494.636474609375 43.80458450317383 486.55303955078125" fill="white" fill2="rgb(242, 232, 221)" opacity="0.3459429" stroke="black" stroke2="rgb(156, 59, 221)" stroke-linecap="round" stroke-linejoin="round" stroke-opacity="1.0" stroke-opacity2="0.3954955" stroke-width="2.0"/>
    <path d="M 243.44100952148438 129.1316680908203 C 246.04762268066406 129.6109619140625 245.59837341308594 129.7593536376953 243.28317260742188 129.1297607421875 C 247.00843811035156 129.85768127441406 242.60804748535156 128.94277954101562 244.81214904785156 129.20028686523438 C 247.96453857421875 130.15045166015625 241.7484893798828 128.2466278076172 245.83706665039062 129.69552612304688 C 242.91119384765625 128.72242736816406 245.43505859375 129.70877075195312 243.44100952148438 129.1316680908203" fill="white" fill2="rgb(255, 255, 255)" opacity="0.46334633" stroke="black" stroke2="rgb(131, 22, 20)" stroke-linecap="round" stroke-linejoin="round" stroke-opacity="1.0" stroke-opacity2="0.31355315" stroke-width="2.0"/>
    <path d="M 49.65179443359375 535.7919311523438 C 58.26819610595703 536.3687744140625 49.771427154541016 522.2299194335938 41.34500503540039 534.5663452148438 C 44.72937774658203 566.7931518554688 68.57495880126953 550.1239013671875 75.87411499023438 530.8863525390625 C 47.81771469116211 535.6312255859375 54.05853271484375 536.579833984375 52.472469329833984 531.9044189453125 C 71.31881713867188 529.8807373046875 66.93685150146484 533.8590698242188 49.65179443359375 535.7919311523438" fill="white" fill2="rgb(229, 235, 200)" opacity="0.12805413" stroke="black" stroke2="rgb(98, 214, 186)" stroke-linecap="round" stroke-linejoin="round" stroke-opacity="1.0" stroke-opacity2="0.8356267" stroke-width="2.0"/>
    <path d="M 161.9515838623047 518.6686401367188 C 143.25953674316406 475.96405029296875 144.17030334472656 479.0260009765625 143.0945587158203 520.35888671875 C 112.74844360351562 491.3001403808594 131.458984375 504.60333251953125 110.6370849609375 455.6294250488281 C 74.38768005371094 475.07470703125 43.22349548339844 444.2870178222656 101.158447265625 412.7950134277344 C 191.37367248535156 413.4442138671875 163.93228149414062 431.4311218261719 161.9515838623047 518.6686401367188" fill="white" fill2="rgb(47, 87, 86)" opacity="0.74569243" stroke="black" stroke2="rgb(14, 210, 20)" stroke-linecap="round" stroke-linejoin="round" stroke-opacity="1.0" stroke-opacity2="0.4333421" stroke-width="2.0"/>
  </g>
</svg>
